<?xml version="1.0" encoding="utf-8"?>
<svg id="master-artboard" viewBox="0 0 3245 1679.9998779296875" version="1.1" xmlns="http://www.w3.org/2000/svg" x="0px" y="0px" style="enable-background:new 0 0 2400 2400;" width="3245px" height="1679.9998779296875px"><defs><style id="ee-google-fonts">@import url(https://fonts.googleapis.com/css?family=Abril+Fatface:400);</style></defs><rect id="ee-background" x="0" y="0" width="3245" height="1679.9998779296875" style="fill: white; fill-opacity: 0; pointer-events: none;"/>






<g transform="matrix(1.5224266052246094, 0.001724821049720049, -0.001724821049720049, 1.5224266052246094, -66.93142700195312, -2673.197265625)">
		<path d="M 448 1974.199951 H 474.6 V 2100.899948 H 448 V 1974.199951 Z"/>
		<path d="M 342.100006 1805 H 391.200005 V 2270.200012 H 342.100006 V 1805 Z"/>
		<path d="M 398.899994 1794.099976 H 447.999992 V 2280.999969 H 398.899994 V 1794.099976 Z"/>
		<path d="M 285.899994 1827.099976 H 334.999992 V 2247.999969 H 285.899994 V 1827.099976 Z"/>
		<path d="M 229.699997 1849.199951 H 278.799995 V 2225.799957 H 229.699997 V 1849.199951 Z"/>
		<path d="M 200.399994 1971.099976 H 229.599995 V 2103.899979 H 200.399994 V 1971.099976 Z"/>
	</g><path d="M 139.399994 2007.599976 H 2143.300018 V 2067.399975 H 139.399994 V 2007.599976 Z" transform="matrix(1.5224266052246094, 0.001724821049720049, -0.001724821049720049, 1.5224266052246094, -66.93142700195312, -2673.197265625)"/><path d="M 1808.099976 1974.199951 H 1834.699976 V 2100.899948 H 1808.099976 V 1974.199951 Z" transform="matrix(1.5224266052246094, 0.001724821049720049, -0.001724821049720049, 1.5224266052246094, -66.93142700195312, -2673.197265625)"/><path d="M 1891.5 1805 H 1940.599998 V 2270.200012 H 1891.5 V 1805 Z" transform="matrix(1.5224266052246094, 0.001724821049720049, -0.001724821049720049, 1.5224266052246094, -66.93142700195312, -2673.197265625)"/><path d="M 1834.699951 1794.099976 H 1883.79995 V 2280.999969 H 1834.699951 V 1794.099976 Z" transform="matrix(1.5224266052246094, 0.001724821049720049, -0.001724821049720049, 1.5224266052246094, -66.93142700195312, -2673.197265625)"/><path d="M 1947.699951 1827.099976 H 1996.79995 V 2247.999969 H 1947.699951 V 1827.099976 Z" transform="matrix(1.5224266052246094, 0.001724821049720049, -0.001724821049720049, 1.5224266052246094, -66.93142700195312, -2673.197265625)"/><path d="M 2004 1849.199951 H 2053.099998 V 2225.799957 H 2004 V 1849.199951 Z" transform="matrix(1.5224266052246094, 0.001724821049720049, -0.001724821049720049, 1.5224266052246094, -66.93142700195312, -2673.197265625)"/><path d="M 2053 1971.099976 H 2082.200001 V 2103.899979 H 2053 V 1971.099976 Z" transform="matrix(1.5224266052246094, 0.001724821049720049, -0.001724821049720049, 1.5224266052246094, -66.93142700195312, -2673.197265625)"/>

<g transform="matrix(1.5224266052246094, 0.0017248222138732672, -0.0017248222138732672, 1.5224266052246094, -61.931427001953125, -1858.197265625)">
		<path d="M 448 1974.199951 H 474.6 V 2100.899948 H 448 V 1974.199951 Z"/>
		<path d="M 342.100006 1805 H 391.200005 V 2270.200012 H 342.100006 V 1805 Z"/>
		<path d="M 398.899994 1794.099976 H 447.999992 V 2280.999969 H 398.899994 V 1794.099976 Z"/>
		<path d="M 285.899994 1827.099976 H 334.999992 V 2247.999969 H 285.899994 V 1827.099976 Z"/>
		<path d="M 229.699997 1849.199951 H 278.799995 V 2225.799957 H 229.699997 V 1849.199951 Z"/>
		<path d="M 200.399994 1971.099976 H 229.599995 V 2103.899979 H 200.399994 V 1971.099976 Z"/>
	</g><path d="M 139.399994 2007.599976 H 2143.300018 V 2067.399975 H 139.399994 V 2007.599976 Z" transform="matrix(1.5224266052246094, 0.0017248222138732672, -0.0017248222138732672, 1.5224266052246094, -61.931427001953125, -1858.197265625)"/><path d="M 1808.099976 1974.199951 H 1834.699976 V 2100.899948 H 1808.099976 V 1974.199951 Z" transform="matrix(1.5224266052246094, 0.0017248222138732672, -0.0017248222138732672, 1.5224266052246094, -61.931427001953125, -1858.197265625)"/><path d="M 1891.5 1805 H 1940.599998 V 2270.200012 H 1891.5 V 1805 Z" transform="matrix(1.5224266052246094, 0.0017248222138732672, -0.0017248222138732672, 1.5224266052246094, -61.931427001953125, -1858.197265625)"/><path d="M 1834.699951 1794.099976 H 1883.79995 V 2280.999969 H 1834.699951 V 1794.099976 Z" transform="matrix(1.5224266052246094, 0.0017248222138732672, -0.0017248222138732672, 1.5224266052246094, -61.931427001953125, -1858.197265625)"/><path d="M 1947.699951 1827.099976 H 1996.79995 V 2247.999969 H 1947.699951 V 1827.099976 Z" transform="matrix(1.5224266052246094, 0.0017248222138732672, -0.0017248222138732672, 1.5224266052246094, -61.931427001953125, -1858.197265625)"/><path d="M 2004 1849.199951 H 2053.099998 V 2225.799957 H 2004 V 1849.199951 Z" transform="matrix(1.5224266052246094, 0.0017248222138732672, -0.0017248222138732672, 1.5224266052246094, -61.931427001953125, -1858.197265625)"/><path d="M 2053 1971.099976 H 2082.200001 V 2103.899979 H 2053 V 1971.099976 Z" transform="matrix(1.5224266052246094, 0.0017248222138732672, -0.0017248222138732672, 1.5224266052246094, -61.931427001953125, -1858.197265625)"/><path d="M 0.6299999952316284 0.6000003814697266 L 12.979999542236328 0.6000003814697266 C 17.206666946411133 0.6000003814697266 20.356666564941406 1.2099990844726562 22.43000030517578 2.4300003051757812 C 24.503334045410156 3.6433334350585938 25.540000915527344 5.819999694824219 25.540000915527344 8.959999084472656 C 25.540000915527344 12.433332443237305 24.280000686645508 14.826666831970215 21.760000228881836 16.139999389648438 C 19.406665802001953 17.34666633605957 16.116666793823242 17.950000762939453 11.890000343322754 17.950000762939453 L 11.550000190734863 17.950000762939453 L 11.550000190734863 29.200000762939453 L 16.799999237060547 29.200000762939453 L 16.799999237060547 30 L 0.6299999952316284 30 L 0.6299999952316284 29.200000762939453 L 3.359999895095825 29.200000762939453 L 3.359999895095825 1.3999996185302734 L 0.6299999952316284 1.3999996185302734 L 0.6299999952316284 0.6000003814697266 M 11.550000190734863 1.3999996185302734 L 11.550000190734863 17.149999618530273 L 12.430000305175781 17.149999618530273 C 14.109999656677246 17.149999618530273 15.273333549499512 16.57666778564453 15.920000076293945 15.430000305175781 C 16.559999465942383 14.276666641235352 16.8799991607666 12.413333892822266 16.8799991607666 9.84000015258789 L 16.8799991607666 7.819999694824219 C 16.8799991607666 5.440000534057617 16.579999923706055 3.7766666412353516 15.979999542236328 2.8299999237060547 C 15.380000114440918 1.8766670227050781 14.279999732971191 1.3999996185302734 12.680000305175781 1.3999996185302734 L 11.550000190734863 1.3999996185302734 ZM 39.357994079589844 21.729999542236328 L 39.357994079589844 18.15999984741211 C 39.357994079589844 15.4399995803833 39.21133041381836 13.456666946411133 38.91799545288086 12.209999084472656 C 38.61799621582031 10.963333129882812 37.93799591064453 10.34000015258789 36.87799835205078 10.34000015258789 C 36.25799560546875 10.34000015258789 35.761329650878906 10.516666412353516 35.387996673583984 10.870000839233398 C 35.00799560546875 11.216667175292969 34.73466491699219 11.796667098999023 34.567996978759766 12.610000610351562 C 34.31466293334961 13.870000839233398 34.18799591064453 15.789999961853027 34.18799591064453 18.369998931884766 L 34.18799591064453 21.639999389648438 C 34.18799591064453 24.69333267211914 34.27799606323242 26.52666664123535 34.4579963684082 27.139999389648438 C 34.64466094970703 27.760000228881836 34.83466339111328 28.266666412353516 35.02799606323242 28.65999984741211 C 35.33466339111328 29.3266658782959 35.93799591064453 29.65999984741211 36.83799743652344 29.65999984741211 C 37.92466354370117 29.65999984741211 38.637996673583984 29.030000686645508 38.977996826171875 27.770000457763672 C 39.23133087158203 26.876667022705078 39.357994079589844 24.863332748413086 39.357994079589844 21.729999542236328 M 36.74799728393555 30.420000076293945 C 33.24799728393555 30.420000076293945 30.601329803466797 29.523332595825195 28.80799674987793 27.729999542236328 C 27.021329879760742 25.93666648864746 26.12799644470215 23.366666793823242 26.12799644470215 20.020000457763672 C 26.12799644470215 16.68000030517578 27.08466339111328 14.106666564941406 28.997997283935547 12.299999237060547 C 30.91799545288086 10.49333381652832 33.614662170410156 9.59000015258789 37.08799743652344 9.59000015258789 C 40.56132888793945 9.59000015258789 43.151329040527344 10.423334121704102 44.857994079589844 12.09000015258789 C 46.56466293334961 13.75666618347168 47.41799545288086 16.296667098999023 47.41799545288086 19.709999084472656 C 47.41799545288086 26.850000381469727 43.861328125 30.420000076293945 36.74799728393555 30.420000076293945 ZM 61.693992614746094 10.760000228881836 L 61.693992614746094 10.010000228881836 L 72.53399658203125 10.010000228881836 L 72.53399658203125 10.760000228881836 L 70.81399536132812 10.760000228881836 L 74.593994140625 24.920000076293945 L 78.33399200439453 10.760000228881836 L 75.43399047851562 10.760000228881836 L 75.43399047851562 10.010000228881836 L 81.10398864746094 10.010000228881836 L 81.10398864746094 10.760000228881836 L 79.33399200439453 10.760000228881836 L 74.29399108886719 30 L 68.54399108886719 30 L 64.89399719238281 17.110000610351562 L 60.943992614746094 30 L 55.313995361328125 30 L 49.093994140625 10.760000228881836 L 47.20399475097656 10.760000228881836 L 47.20399475097656 10.010000228881836 L 59.93399429321289 10.010000228881836 L 59.93399429321289 10.760000228881836 L 57.41399383544922 10.760000228881836 L 61.27399444580078 25.040000915527344 L 64.30399322509766 15.220000267028809 L 63.25399398803711 10.760000228881836 L 61.693992614746094 10.760000228881836 ZM 91.9419937133789 30.420000076293945 C 88.32865905761719 30.420000076293945 85.61865997314453 29.489999771118164 83.8119888305664 27.630001068115234 C 82.00532531738281 25.76333236694336 81.10198974609375 23.17333221435547 81.10198974609375 19.860000610351562 C 81.10198974609375 16.540000915527344 82.11865997314453 13.996665954589844 84.15199279785156 12.229999542236328 C 86.17865753173828 10.469999313354492 88.75865936279297 9.59000015258789 91.8919906616211 9.59000015258789 C 98.25199127197266 9.59000015258789 101.30532836914062 12.780000686645508 101.05199432373047 19.15999984741211 L 89.21199035644531 19.15999984741211 L 89.21199035644531 20.799999237060547 C 89.21199035644531 23.546667098999023 89.56199645996094 25.619998931884766 90.26199340820312 27.020000457763672 C 90.96199035644531 28.420000076293945 92.17865753173828 29.1200008392334 93.91199493408203 29.1200008392334 C 97.15866088867188 29.1200008392334 99.28532409667969 27.383333206176758 100.2919921875 23.90999984741211 L 101.05199432373047 24.040000915527344 C 100.51866149902344 26.053333282470703 99.55865478515625 27.619998931884766 98.1719970703125 28.739999771118164 C 96.78532409667969 29.860000610351562 94.70865631103516 30.420000076293945 91.9419937133789 30.420000076293945 M 89.25199127197266 18.31999969482422 L 93.57199096679688 18.31999969482422 L 93.57199096679688 16.270000457763672 C 93.57199096679688 13.996665954589844 93.4419937133789 12.446666717529297 93.18199157714844 11.620000839233398 C 92.91532897949219 10.799999237060547 92.38198852539062 10.389999389648438 91.58199310302734 10.389999389648438 C 90.78199005126953 10.389999389648438 90.19532775878906 10.829999923706055 89.82199096679688 11.709999084472656 C 89.4419937133789 12.59000015258789 89.25199127197266 14.109999656677246 89.25199127197266 16.270000457763672 L 89.25199127197266 18.31999969482422 ZM 116.59398651123047 11.180000305175781 C 115.55398559570312 11.180000305175781 114.64398956298828 11.85333251953125 113.8639907836914 13.200000762939453 C 113.07732391357422 14.546667098999023 112.68399047851562 16.143333435058594 112.68399047851562 17.989999771118164 L 112.68399047851562 29.239999771118164 L 115.66398620605469 29.239999771118164 L 115.66398620605469 30 L 102.5639877319336 30 L 102.5639877319336 29.239999771118164 L 104.87399291992188 29.239999771118164 L 104.87399291992188 10.760000228881836 L 102.5639877319336 10.760000228881836 L 102.5639877319336 10.010000228881836 L 112.68399047851562 10.010000228881836 L 112.68399047851562 14.039999961853027 C 113.0506591796875 12.613332748413086 113.75065612792969 11.513334274291992 114.78398895263672 10.739999771118164 C 115.82398986816406 9.973333358764648 117.00065612792969 9.59000015258789 118.3139877319336 9.59000015258789 C 119.6273193359375 9.59000015258789 120.69732666015625 9.959999084472656 121.52398681640625 10.700000762939453 C 122.35065460205078 11.440000534057617 122.76399230957031 12.489999771118164 122.76399230957031 13.850000381469727 C 122.76399230957031 15.210000038146973 122.45732116699219 16.253334045410156 121.843994140625 16.979999542236328 C 121.22399139404297 17.706666946411133 120.2773208618164 18.06999969482422 119.00399017333984 18.06999969482422 C 117.73065948486328 18.06999969482422 116.79399108886719 17.649999618530273 116.1939926147461 16.810001373291016 C 115.59398651123047 15.970000267028809 115.51731872558594 14.8100004196167 115.9639892578125 13.329999923706055 L 117.47399139404297 13.329999923706055 C 118.17398834228516 11.89666748046875 117.88065338134766 11.180000305175781 116.59398651123047 11.180000305175781 ZM 122.76399230957031 -1.5 L 133.05398559570312 -1.5 L 133.05398559570312 29.239999771118164 L 135.40399169921875 29.239999771118164 L 135.40399169921875 30 L 122.93399047851562 30 L 122.93399047851562 29.239999771118164 L 125.2439956665039 29.239999771118164 L 125.2439956665039 -0.7399997711181641 L 122.76399230957031 -0.7399997711181641 L 122.76399230957031 -1.5 ZM 142.3759765625 7.1100006103515625 C 142.3759765625 7.1100006103515625 142.0059814453125 7.1100006103515625 141.26597595214844 7.1100006103515625 C 140.52598571777344 7.1100006103515625 139.8393096923828 6.733333587646484 139.2059783935547 5.979999542236328 C 138.57931518554688 5.219999313354492 138.26597595214844 4.280000686645508 138.26597595214844 3.1599998474121094 C 138.26597595214844 2.0400009155273438 138.60931396484375 1.1166667938232422 139.2959747314453 0.3899993896484375 C 139.98265075683594 -0.3366661071777344 141.02598571777344 -0.7000007629394531 142.4259796142578 -0.7000007629394531 C 143.8259735107422 -0.7000007629394531 144.88931274414062 -0.3733329772949219 145.61598205566406 0.2800006866455078 C 146.3426513671875 0.9400005340576172 146.7059783935547 1.8799991607666016 146.7059783935547 3.1000003814697266 C 146.7059783935547 4.319999694824219 146.35598754882812 5.293333053588867 145.65597534179688 6.020000457763672 C 144.9559783935547 6.746665954589844 143.86264038085938 7.1100006103515625 142.3759765625 7.1100006103515625 M 136.03598022460938 10.010000228881836 L 146.3259735107422 10.010000228881836 L 146.3259735107422 29.239999771118164 L 148.6759796142578 29.239999771118164 L 148.6759796142578 30 L 136.2059783935547 30 L 136.2059783935547 29.239999771118164 L 138.51597595214844 29.239999771118164 L 138.51597595214844 10.760000228881836 L 136.03598022460938 10.760000228881836 L 136.03598022460938 10.010000228881836 ZM 162.24996948242188 -1.75 C 161.1833038330078 -1.75 160.48330688476562 -1.35333251953125 160.1499786376953 -0.5599994659423828 C 159.8099822998047 0.23999977111816406 159.6399688720703 1.5233325958251953 159.6399688720703 3.2900009155273438 L 159.6399688720703 10.010000228881836 L 165.18997192382812 10.010000228881836 L 165.18997192382812 10.760000228881836 L 159.6399688720703 10.760000228881836 L 159.6399688720703 29.239999771118164 L 164.7699737548828 29.239999771118164 L 164.7699737548828 30 L 149.5199737548828 30 L 149.5199737548828 29.239999771118164 L 151.82997131347656 29.239999771118164 L 151.82997131347656 10.760000228881836 L 149.3899688720703 10.760000228881836 L 149.3899688720703 10.010000228881836 L 151.82997131347656 10.010000228881836 L 151.82997131347656 9.84000015258789 C 151.82997131347656 5.806667327880859 152.5999755859375 2.7466659545898438 154.1399688720703 0.6599998474121094 C 155.6799774169922 -1.426666259765625 158.2566375732422 -2.470001220703125 161.86997985839844 -2.470001220703125 C 164.24996948242188 -2.470001220703125 165.95663452148438 -2 166.98997497558594 -1.0599994659423828 C 168.02996826171875 -0.12000083923339844 168.5499725341797 0.9666671752929688 168.5499725341797 2.200000762939453 C 168.5499725341797 3.426666259765625 168.2266387939453 4.350000381469727 167.57997131347656 4.969999313354492 C 166.9333038330078 5.583333969116211 166.07997131347656 5.8899993896484375 165.0199737548828 5.8899993896484375 C 163.95330810546875 5.8899993896484375 163.13331604003906 5.616666793823242 162.5599822998047 5.069999694824219 C 161.9866485595703 4.523332595825195 161.69998168945312 3.8933334350585938 161.69998168945312 3.1800003051757812 C 161.69998168945312 2.4666671752929688 161.78330993652344 1.7733325958251953 161.94998168945312 1.1000003814697266 L 163.5499725341797 1.1000003814697266 C 164.10997009277344 -0.7999992370605469 163.6766357421875 -1.75 162.24996948242188 -1.75 ZM 167.1179656982422 23.989999771118164 L 167.1179656982422 10.760000228881836 L 164.80796813964844 10.760000228881836 L 164.80796813964844 10.010000228881836 L 167.1179656982422 10.010000228881836 L 167.1179656982422 4.590000152587891 L 174.92796325683594 2.6599998474121094 L 174.92796325683594 10.010000228881836 L 180.38795471191406 10.010000228881836 L 180.38795471191406 10.760000228881836 L 174.92796325683594 10.760000228881836 L 174.92796325683594 24.920000076293945 C 174.92796325683594 26.233333587646484 175.06129455566406 27.200000762939453 175.3279571533203 27.81999969482422 C 175.59463500976562 28.433332443237305 176.14796447753906 28.739999771118164 176.9879608154297 28.739999771118164 C 177.8279571533203 28.739999771118164 178.5646209716797 28.31999969482422 179.19796752929688 27.479999542236328 C 179.8246307373047 26.639999389648438 180.23463439941406 25.49333381652832 180.42796325683594 24.040000915527344 L 181.14796447753906 24.119998931884766 C 180.92129516601562 26.053333282470703 180.30462646484375 27.586666107177734 179.29795837402344 28.719999313354492 C 178.29129028320312 29.85333251953125 176.6246337890625 30.420000076293945 174.29795837402344 30.420000076293945 C 171.97796630859375 30.420000076293945 170.2012939453125 29.956666946411133 168.96795654296875 29.030000686645508 C 167.73463439941406 28.110000610351562 167.1179656982422 26.43000030517578 167.1179656982422 23.989999771118164 ZM 187.7359619140625 7.1100006103515625 C 187.7359619140625 7.1100006103515625 187.365966796875 7.1100006103515625 186.62596130371094 7.1100006103515625 C 185.88597106933594 7.1100006103515625 185.1992950439453 6.733333587646484 184.5659637451172 5.979999542236328 C 183.93930053710938 5.219999313354492 183.62596130371094 4.280000686645508 183.62596130371094 3.1599998474121094 C 183.62596130371094 2.0400009155273438 183.96929931640625 1.1166667938232422 184.6559600830078 0.3899993896484375 C 185.34263610839844 -0.3366661071777344 186.38597106933594 -0.7000007629394531 187.7859649658203 -0.7000007629394531 C 189.1859588623047 -0.7000007629394531 190.24929809570312 -0.3733329772949219 190.97596740722656 0.2800006866455078 C 191.70263671875 0.9400005340576172 192.0659637451172 1.8799991607666016 192.0659637451172 3.1000003814697266 C 192.0659637451172 4.319999694824219 191.71597290039062 5.293333053588867 191.01596069335938 6.020000457763672 C 190.3159637451172 6.746665954589844 189.22262573242188 7.1100006103515625 187.7359619140625 7.1100006103515625 M 181.39596557617188 10.010000228881836 L 191.6859588623047 10.010000228881836 L 191.6859588623047 29.239999771118164 L 194.0359649658203 29.239999771118164 L 194.0359649658203 30 L 181.5659637451172 30 L 181.5659637451172 29.239999771118164 L 183.87596130371094 29.239999771118164 L 183.87596130371094 10.760000228881836 L 181.39596557617188 10.760000228881836 L 181.39596557617188 10.010000228881836 ZM 194.9599609375 10.010000228881836 L 205.0899658203125 10.010000228881836 L 205.0899658203125 13.870000839233398 C 205.53662109375 12.583333969116211 206.21995544433594 11.546667098999023 207.13995361328125 10.760000228881836 C 208.06661987304688 9.979999542236328 209.4666290283203 9.59000015258789 211.3399658203125 9.59000015258789 C 215.67996215820312 9.59000015258789 217.84996032714844 11.926666259765625 217.84996032714844 16.600000381469727 L 217.84996032714844 29.239999771118164 L 220.2099609375 29.239999771118164 L 220.2099609375 30 L 208.31996154785156 30 L 208.31996154785156 29.239999771118164 L 210.0399627685547 29.239999771118164 L 210.0399627685547 15.59000015258789 C 210.0399627685547 13.90999984741211 209.92996215820312 12.826665878295898 209.7099609375 12.34000015258789 C 209.48329162597656 11.84666633605957 209.07662963867188 11.600000381469727 208.48995971679688 11.600000381469727 C 207.5899658203125 11.600000381469727 206.79995727539062 12.190000534057617 206.11996459960938 13.370000839233398 C 205.43328857421875 14.543333053588867 205.0899658203125 15.970000267028809 205.0899658203125 17.649999618530273 L 205.0899658203125 29.239999771118164 L 206.88995361328125 29.239999771118164 L 206.88995361328125 30 L 194.9599609375 30 L 194.9599609375 29.239999771118164 L 197.26995849609375 29.239999771118164 L 197.26995849609375 10.760000228881836 L 194.9599609375 10.760000228881836 L 194.9599609375 10.010000228881836 ZM 237.59194946289062 7.819999694824219 L 238.77195739746094 7.1100006103515625 C 238.93862915039062 6.24333381652832 238.60195922851562 5.809999465942383 237.761962890625 5.809999465942383 C 236.55528259277344 5.809999465942383 235.9519500732422 6.733333587646484 235.9519500732422 8.579999923706055 C 235.9519500732422 9.30666732788086 236.0519561767578 10.14666748046875 236.251953125 11.100000381469727 C 238.3786163330078 12.526666641235352 239.44195556640625 14.353333473205566 239.44195556640625 16.579999923706055 C 239.44195556640625 18.80666732788086 238.6719512939453 20.536666870117188 237.1319580078125 21.770000457763672 C 235.59194946289062 23.003334045410156 233.5052947998047 23.619998931884766 230.8719482421875 23.619998931884766 C 229.77862548828125 23.619998931884766 228.64529418945312 23.50666618347168 227.47195434570312 23.280000686645508 C 226.23861694335938 24.066665649414062 225.6219482421875 24.65333366394043 225.6219482421875 25.040000915527344 C 225.6219482421875 25.433334350585938 226.51861572265625 25.630001068115234 228.31195068359375 25.630001068115234 L 232.59194946289062 25.630001068115234 C 238.9519500732422 25.630001068115234 242.1319580078125 27.913333892822266 242.1319580078125 32.47999954223633 C 242.1319580078125 34.939998626708984 241.1719512939453 36.893333435058594 239.251953125 38.34000015258789 C 237.3319549560547 39.779998779296875 234.34194946289062 40.5 230.28195190429688 40.5 C 223.36862182617188 40.5 219.91195678710938 39.003334045410156 219.91195678710938 36.01000213623047 C 219.91195678710938 34.383331298828125 220.98861694335938 33.26333236694336 223.14195251464844 32.650001525878906 L 225.66195678710938 33.779998779296875 C 225.44195556640625 34.59333419799805 225.3319549560547 35.36333465576172 225.3319549560547 36.09000015258789 C 225.3319549560547 38.496665954589844 227.1219482421875 39.70000076293945 230.7019500732422 39.70000076293945 C 232.8886260986328 39.70000076293945 234.56861877441406 39.2933349609375 235.74195861816406 38.47999954223633 C 236.9219512939453 37.67333221435547 237.511962890625 36.66666793823242 237.511962890625 35.459999084472656 C 237.511962890625 34.253334045410156 237.15528869628906 33.45000076293945 236.44195556640625 33.04999923706055 C 235.72862243652344 32.643333435058594 234.30528259277344 32.439998626708984 232.1719512939453 32.439998626708984 L 228.10195922851562 32.439998626708984 C 225.8352813720703 32.439998626708984 224.2119598388672 32.060001373291016 223.23194885253906 31.299999237060547 C 222.251953125 30.546667098999023 221.76194763183594 29.616666793823242 221.76194763183594 28.510000228881836 C 221.76194763183594 27.40333366394043 222.11195373535156 26.479999542236328 222.81195068359375 25.739999771118164 C 223.51194763183594 24.99333381652832 224.7586212158203 24.07666778564453 226.5519561767578 22.989999771118164 C 223.29861450195312 22.06333351135254 221.6719512939453 19.933334350585938 221.6719512939453 16.600000381469727 C 221.6719512939453 14.5 222.42861938476562 12.80666732788086 223.94195556640625 11.520000457763672 C 225.45529174804688 10.233333587646484 227.72528076171875 9.59000015258789 230.751953125 9.59000015258789 C 232.57196044921875 9.59000015258789 234.1252899169922 9.940000534057617 235.41195678710938 10.639999389648438 C 235.2452850341797 9.879999160766602 235.16195678710938 9.19333267211914 235.16195678710938 8.579999923706055 C 235.16195678710938 7.013334274291992 235.5819549560547 5.879999160766602 236.4219512939453 5.180000305175781 C 237.261962890625 4.479999542236328 238.19862365722656 4.129999160766602 239.23194885253906 4.129999160766602 C 240.26528930664062 4.129999160766602 241.09861755371094 4.40333366394043 241.73194885253906 4.950000762939453 C 242.35862731933594 5.496665954589844 242.6719512939453 6.24333381652832 242.6719512939453 7.190000534057617 C 242.6719512939453 8.143333435058594 242.4219512939453 8.850000381469727 241.9219512939453 9.309999465942383 C 241.415283203125 9.776666641235352 240.80528259277344 10.010000228881836 240.09194946289062 10.010000228881836 C 239.3786163330078 10.010000228881836 238.79196166992188 9.819999694824219 238.3319549560547 9.440000534057617 C 237.86529541015625 9.059999465942383 237.61862182617188 8.520000457763672 237.59194946289062 7.819999694824219 M 228.69195556640625 15.680000305175781 L 228.69195556640625 17.950000762939453 C 228.69195556640625 19.823333740234375 228.85195922851562 21.09666633605957 229.1719512939453 21.770000457763672 C 229.49195861816406 22.44333267211914 229.98194885253906 22.780000686645508 230.64195251464844 22.780000686645508 C 231.3019561767578 22.780000686645508 231.77862548828125 22.450000762939453 232.07196044921875 21.790000915527344 C 232.36529541015625 21.130001068115234 232.511962890625 19.779998779296875 232.511962890625 17.739999771118164 L 232.511962890625 15.680000305175781 C 232.511962890625 13.49333381652832 232.3719482421875 12.05666732788086 232.09194946289062 11.370000839233398 C 231.81195068359375 10.683332443237305 231.34194946289062 10.34000015258789 230.6819610595703 10.34000015258789 C 230.02862548828125 10.34000015258789 229.53195190429688 10.696666717529297 229.19195556640625 11.40999984741211 C 228.85862731933594 12.129999160766602 228.69195556640625 13.553333282470703 228.69195556640625 15.680000305175781 Z" transform="matrix(5, 0, 0, 5, 1070, 760)" style="fill: rgb(51, 51, 51);"/></svg>